<?xml version="1.0" standalone="no"?>
<!DOCTYPE svg PUBLIC "-//W3C//DTD SVG 20010904//EN"
 "http://www.w3.org/TR/2001/REC-SVG-20010904/DTD/svg10.dtd">
<svg version="1.0" xmlns="http://www.w3.org/2000/svg"
 width="120.000000pt" height="120.000000pt" viewBox="0 0 120.000000 120.000000"
 preserveAspectRatio="xMidYMid meet">
<metadata>
Created by potrace 1.14, written by Peter Selinger 2001-2017
</metadata>
<g transform="translate(0.000000,120.000000) scale(0.100000,-0.100000)"
fill="#000000" stroke="none">
<path d="M927 1073 c-2 -5 -8 -26 -12 -48 -6 -35 -17 -58 -53 -112 -6 -10 -17
-8 -48 8 -73 36 -163 34 -301 -7 -20 -6 -23 -3 -23 23 0 17 7 52 15 79 8 27
15 50 15 52 0 1 -54 2 -120 2 l-119 0 -10 -37 c-6 -21 -13 -57 -17 -80 l-7
-43 34 0 c44 0 55 -8 62 -48 6 -31 2 -40 -44 -90 -73 -83 -123 -188 -127 -273
-2 -38 0 -81 5 -96 9 -25 6 -32 -28 -68 -42 -43 -85 -122 -95 -173 l-7 -33 73
3 72 3 13 39 c7 21 25 51 40 66 26 27 27 27 58 12 51 -26 171 -28 242 -4 l59
20 81 -67 c140 -117 145 -117 90 -13 -22 43 -44 72 -57 75 -25 7 -21 50 6 55
22 5 38 -16 30 -40 -4 -13 48 -126 73 -157 13 -16 12 25 -1 147 l-15 140 45
68 c24 38 54 101 66 139 12 41 32 82 49 100 28 30 28 30 8 53 -18 24 -18 24 6
56 14 18 30 47 36 64 10 28 16 32 47 32 21 0 43 4 51 9 13 9 30 74 31 124 l0
27 -109 0 c-61 0 -112 -3 -114 -7z m-242 -260 c31 -5 35 -8 20 -14 -26 -10
-83 -11 -115 -2 l-25 7 30 7 c43 9 46 10 90 2z m-193 -123 l55 -30 -7 -46 c-8
-52 -10 -50 72 -58 l57 -6 7 49 6 48 54 15 54 15 0 -27 c0 -35 -25 -94 -58
-141 l-26 -36 -44 25 c-34 19 -64 27 -121 30 -73 4 -118 -5 -205 -43 -18 -8
-19 -5 -12 45 4 29 14 69 22 89 14 34 70 101 84 101 4 0 31 -13 62 -30z m23
-321 c-22 -4 -49 -8 -60 -8 -17 -1 -17 1 -5 9 8 5 35 9 60 9 l45 -1 -40 -9z"/>
</g>
</svg>
